<mxfile host="app.diagrams.net" modified="2024-02-16T18:54:55.669Z" agent="Mozilla/5.0 (X11; Linux x86_64; rv:109.0) Gecko/20100101 Firefox/114.0" etag="VK4f8BARkJ23D_lq6b8T" version="23.1.5" type="device">
  <diagram name="Página-1" id="Rganr19uKsDzd_jjGSZs">
    <mxGraphModel dx="1434" dy="789" grid="1" gridSize="10" guides="1" tooltips="1" connect="1" arrows="1" fold="1" page="1" pageScale="1" pageWidth="1169" pageHeight="827" background="#CCFFFF" math="0" shadow="0">
      <root>
        <mxCell id="0" />
        <mxCell id="1" parent="0" />
        <mxCell id="RUCjFSHT4EMNl13ghefK-5" style="edgeStyle=orthogonalEdgeStyle;rounded=0;orthogonalLoop=1;jettySize=auto;html=1;exitX=1;exitY=0.5;exitDx=0;exitDy=0;entryX=0;entryY=0.5;entryDx=0;entryDy=0;" edge="1" parent="1" source="KhnNNgycjfnA8WjDQx8Y-1" target="RUCjFSHT4EMNl13ghefK-2">
          <mxGeometry relative="1" as="geometry" />
        </mxCell>
        <mxCell id="KhnNNgycjfnA8WjDQx8Y-1" value="Entrada mercancía almacén" style="rounded=1;whiteSpace=wrap;html=1;" parent="1" vertex="1">
          <mxGeometry x="280" y="90" width="120" height="60" as="geometry" />
        </mxCell>
        <mxCell id="RUCjFSHT4EMNl13ghefK-1" style="edgeStyle=orthogonalEdgeStyle;rounded=0;orthogonalLoop=1;jettySize=auto;html=1;exitX=1;exitY=0.5;exitDx=0;exitDy=0;" edge="1" parent="1" source="KhnNNgycjfnA8WjDQx8Y-6" target="KhnNNgycjfnA8WjDQx8Y-1">
          <mxGeometry relative="1" as="geometry" />
        </mxCell>
        <mxCell id="KhnNNgycjfnA8WjDQx8Y-6" value="" style="ellipse;whiteSpace=wrap;html=1;aspect=fixed;fillColor=#FFFFFF;fillStyle=auto;gradientColor=#000000;gradientDirection=radial;" parent="1" vertex="1">
          <mxGeometry x="120" y="100" width="40" height="40" as="geometry" />
        </mxCell>
        <mxCell id="KhnNNgycjfnA8WjDQx8Y-18" value="" style="ellipse;shape=doubleEllipse;whiteSpace=wrap;html=1;aspect=fixed;gradientColor=#FFFFFF;gradientDirection=radial;fillColor=#000000;" parent="1" vertex="1">
          <mxGeometry x="120" y="260" width="40" height="40" as="geometry" />
        </mxCell>
        <mxCell id="8gqbpLLkER0GLrXkm65x-8" value="No" style="text;html=1;strokeColor=none;fillColor=none;align=center;verticalAlign=middle;whiteSpace=wrap;rounded=0;" parent="1" vertex="1">
          <mxGeometry x="90" y="630" width="60" height="30" as="geometry" />
        </mxCell>
        <mxCell id="8gqbpLLkER0GLrXkm65x-9" value="Si" style="text;html=1;align=center;verticalAlign=middle;resizable=0;points=[];autosize=1;strokeColor=none;fillColor=none;" parent="1" vertex="1">
          <mxGeometry x="190" y="650" width="30" height="30" as="geometry" />
        </mxCell>
        <mxCell id="RUCjFSHT4EMNl13ghefK-6" style="edgeStyle=orthogonalEdgeStyle;rounded=0;orthogonalLoop=1;jettySize=auto;html=1;exitX=1;exitY=0.5;exitDx=0;exitDy=0;entryX=0;entryY=0.5;entryDx=0;entryDy=0;" edge="1" parent="1" source="RUCjFSHT4EMNl13ghefK-2" target="RUCjFSHT4EMNl13ghefK-3">
          <mxGeometry relative="1" as="geometry" />
        </mxCell>
        <mxCell id="RUCjFSHT4EMNl13ghefK-13" style="edgeStyle=orthogonalEdgeStyle;rounded=0;orthogonalLoop=1;jettySize=auto;html=1;exitX=0.5;exitY=1;exitDx=0;exitDy=0;" edge="1" parent="1" source="RUCjFSHT4EMNl13ghefK-2" target="RUCjFSHT4EMNl13ghefK-10">
          <mxGeometry relative="1" as="geometry" />
        </mxCell>
        <mxCell id="RUCjFSHT4EMNl13ghefK-2" value="¿Hay pedidos sobresalientes por completar" style="rhombus;whiteSpace=wrap;html=1;" vertex="1" parent="1">
          <mxGeometry x="520" y="80" width="80" height="80" as="geometry" />
        </mxCell>
        <mxCell id="RUCjFSHT4EMNl13ghefK-7" style="edgeStyle=orthogonalEdgeStyle;rounded=0;orthogonalLoop=1;jettySize=auto;html=1;exitX=1;exitY=0.5;exitDx=0;exitDy=0;entryX=0;entryY=0.5;entryDx=0;entryDy=0;" edge="1" parent="1" source="RUCjFSHT4EMNl13ghefK-3" target="RUCjFSHT4EMNl13ghefK-4">
          <mxGeometry relative="1" as="geometry" />
        </mxCell>
        <mxCell id="RUCjFSHT4EMNl13ghefK-14" style="edgeStyle=orthogonalEdgeStyle;rounded=0;orthogonalLoop=1;jettySize=auto;html=1;exitX=0.5;exitY=1;exitDx=0;exitDy=0;entryX=0.5;entryY=0;entryDx=0;entryDy=0;" edge="1" parent="1" source="RUCjFSHT4EMNl13ghefK-3" target="RUCjFSHT4EMNl13ghefK-12">
          <mxGeometry relative="1" as="geometry" />
        </mxCell>
        <mxCell id="RUCjFSHT4EMNl13ghefK-3" value="¿Hay pedidos Normales por completar" style="rhombus;whiteSpace=wrap;html=1;" vertex="1" parent="1">
          <mxGeometry x="720" y="80" width="80" height="80" as="geometry" />
        </mxCell>
        <mxCell id="RUCjFSHT4EMNl13ghefK-4" value="Almacenamiento" style="shape=process;whiteSpace=wrap;html=1;backgroundOutline=1;" vertex="1" parent="1">
          <mxGeometry x="920" y="90" width="120" height="60" as="geometry" />
        </mxCell>
        <mxCell id="RUCjFSHT4EMNl13ghefK-8" value="No" style="text;html=1;strokeColor=none;fillColor=none;align=center;verticalAlign=middle;whiteSpace=wrap;rounded=0;" vertex="1" parent="1">
          <mxGeometry x="610" y="90" width="60" height="30" as="geometry" />
        </mxCell>
        <mxCell id="RUCjFSHT4EMNl13ghefK-9" value="No" style="text;html=1;strokeColor=none;fillColor=none;align=center;verticalAlign=middle;whiteSpace=wrap;rounded=0;" vertex="1" parent="1">
          <mxGeometry x="820" y="90" width="60" height="30" as="geometry" />
        </mxCell>
        <mxCell id="RUCjFSHT4EMNl13ghefK-19" style="edgeStyle=orthogonalEdgeStyle;rounded=0;orthogonalLoop=1;jettySize=auto;html=1;exitX=0;exitY=0.5;exitDx=0;exitDy=0;" edge="1" parent="1" source="RUCjFSHT4EMNl13ghefK-10" target="RUCjFSHT4EMNl13ghefK-18">
          <mxGeometry relative="1" as="geometry" />
        </mxCell>
        <mxCell id="RUCjFSHT4EMNl13ghefK-10" value="&lt;div&gt;Completar &lt;br&gt;&lt;/div&gt;&lt;div&gt;pedidos&lt;br&gt;&lt;/div&gt;&lt;div&gt;sobresalientes&lt;br&gt;&lt;/div&gt;" style="rounded=1;whiteSpace=wrap;html=1;" vertex="1" parent="1">
          <mxGeometry x="520" y="240" width="80" height="80" as="geometry" />
        </mxCell>
        <mxCell id="RUCjFSHT4EMNl13ghefK-32" style="edgeStyle=orthogonalEdgeStyle;rounded=0;orthogonalLoop=1;jettySize=auto;html=1;exitX=0.5;exitY=1;exitDx=0;exitDy=0;entryX=0.5;entryY=0;entryDx=0;entryDy=0;" edge="1" parent="1" source="RUCjFSHT4EMNl13ghefK-12" target="RUCjFSHT4EMNl13ghefK-30">
          <mxGeometry relative="1" as="geometry" />
        </mxCell>
        <mxCell id="RUCjFSHT4EMNl13ghefK-12" value="&lt;div&gt;Completar &lt;br&gt;&lt;/div&gt;&lt;div&gt;pedidos&lt;br&gt;&lt;/div&gt;&lt;div&gt;normales&lt;br&gt;&lt;/div&gt;" style="rounded=1;whiteSpace=wrap;html=1;" vertex="1" parent="1">
          <mxGeometry x="720" y="240" width="80" height="80" as="geometry" />
        </mxCell>
        <mxCell id="RUCjFSHT4EMNl13ghefK-15" value="Si" style="text;html=1;align=center;verticalAlign=middle;resizable=0;points=[];autosize=1;strokeColor=none;fillColor=none;" vertex="1" parent="1">
          <mxGeometry x="560" y="180" width="30" height="30" as="geometry" />
        </mxCell>
        <mxCell id="RUCjFSHT4EMNl13ghefK-16" value="Si" style="text;html=1;align=center;verticalAlign=middle;resizable=0;points=[];autosize=1;strokeColor=none;fillColor=none;" vertex="1" parent="1">
          <mxGeometry x="770" y="180" width="30" height="30" as="geometry" />
        </mxCell>
        <mxCell id="RUCjFSHT4EMNl13ghefK-26" style="edgeStyle=orthogonalEdgeStyle;rounded=0;orthogonalLoop=1;jettySize=auto;html=1;exitX=1;exitY=0.5;exitDx=0;exitDy=0;entryX=0;entryY=0.5;entryDx=0;entryDy=0;" edge="1" parent="1" source="RUCjFSHT4EMNl13ghefK-17" target="RUCjFSHT4EMNl13ghefK-12">
          <mxGeometry relative="1" as="geometry" />
        </mxCell>
        <mxCell id="RUCjFSHT4EMNl13ghefK-27" style="edgeStyle=orthogonalEdgeStyle;rounded=0;orthogonalLoop=1;jettySize=auto;html=1;exitX=0.5;exitY=1;exitDx=0;exitDy=0;entryX=0.5;entryY=1;entryDx=0;entryDy=0;" edge="1" parent="1" source="RUCjFSHT4EMNl13ghefK-17" target="KhnNNgycjfnA8WjDQx8Y-18">
          <mxGeometry relative="1" as="geometry">
            <Array as="points">
              <mxPoint x="560" y="540" />
              <mxPoint x="140" y="540" />
            </Array>
          </mxGeometry>
        </mxCell>
        <mxCell id="RUCjFSHT4EMNl13ghefK-17" value="Han sobrado articulos" style="rhombus;whiteSpace=wrap;html=1;" vertex="1" parent="1">
          <mxGeometry x="520" y="400" width="80" height="80" as="geometry" />
        </mxCell>
        <mxCell id="RUCjFSHT4EMNl13ghefK-21" style="edgeStyle=orthogonalEdgeStyle;rounded=0;orthogonalLoop=1;jettySize=auto;html=1;exitX=0.5;exitY=1;exitDx=0;exitDy=0;" edge="1" parent="1" source="RUCjFSHT4EMNl13ghefK-18" target="RUCjFSHT4EMNl13ghefK-20">
          <mxGeometry relative="1" as="geometry" />
        </mxCell>
        <mxCell id="RUCjFSHT4EMNl13ghefK-22" style="edgeStyle=orthogonalEdgeStyle;rounded=0;orthogonalLoop=1;jettySize=auto;html=1;exitX=0;exitY=0.5;exitDx=0;exitDy=0;entryX=1;entryY=0.5;entryDx=0;entryDy=0;" edge="1" parent="1" source="RUCjFSHT4EMNl13ghefK-18" target="KhnNNgycjfnA8WjDQx8Y-18">
          <mxGeometry relative="1" as="geometry" />
        </mxCell>
        <mxCell id="RUCjFSHT4EMNl13ghefK-18" value="¿Se han completado pedidos?" style="rhombus;whiteSpace=wrap;html=1;" vertex="1" parent="1">
          <mxGeometry x="320" y="240" width="80" height="80" as="geometry" />
        </mxCell>
        <mxCell id="RUCjFSHT4EMNl13ghefK-23" style="edgeStyle=orthogonalEdgeStyle;rounded=0;orthogonalLoop=1;jettySize=auto;html=1;exitX=1;exitY=0.5;exitDx=0;exitDy=0;entryX=0;entryY=0.5;entryDx=0;entryDy=0;" edge="1" parent="1" source="RUCjFSHT4EMNl13ghefK-20" target="RUCjFSHT4EMNl13ghefK-17">
          <mxGeometry relative="1" as="geometry" />
        </mxCell>
        <mxCell id="RUCjFSHT4EMNl13ghefK-20" value="Enviar al cliente" style="rounded=1;whiteSpace=wrap;html=1;" vertex="1" parent="1">
          <mxGeometry x="320" y="400" width="80" height="80" as="geometry" />
        </mxCell>
        <mxCell id="RUCjFSHT4EMNl13ghefK-24" value="No" style="text;html=1;strokeColor=none;fillColor=none;align=center;verticalAlign=middle;whiteSpace=wrap;rounded=0;" vertex="1" parent="1">
          <mxGeometry x="250" y="250" width="60" height="30" as="geometry" />
        </mxCell>
        <mxCell id="RUCjFSHT4EMNl13ghefK-25" value="Si" style="text;html=1;align=center;verticalAlign=middle;resizable=0;points=[];autosize=1;strokeColor=none;fillColor=none;" vertex="1" parent="1">
          <mxGeometry x="360" y="320" width="30" height="30" as="geometry" />
        </mxCell>
        <mxCell id="RUCjFSHT4EMNl13ghefK-28" value="Si" style="text;html=1;align=center;verticalAlign=middle;resizable=0;points=[];autosize=1;strokeColor=none;fillColor=none;" vertex="1" parent="1">
          <mxGeometry x="610" y="410" width="30" height="30" as="geometry" />
        </mxCell>
        <mxCell id="RUCjFSHT4EMNl13ghefK-29" value="No" style="text;html=1;strokeColor=none;fillColor=none;align=center;verticalAlign=middle;whiteSpace=wrap;rounded=0;" vertex="1" parent="1">
          <mxGeometry x="550" y="480" width="60" height="30" as="geometry" />
        </mxCell>
        <mxCell id="RUCjFSHT4EMNl13ghefK-34" style="edgeStyle=orthogonalEdgeStyle;rounded=0;orthogonalLoop=1;jettySize=auto;html=1;exitX=1;exitY=0.5;exitDx=0;exitDy=0;" edge="1" parent="1" source="RUCjFSHT4EMNl13ghefK-30" target="RUCjFSHT4EMNl13ghefK-33">
          <mxGeometry relative="1" as="geometry" />
        </mxCell>
        <mxCell id="RUCjFSHT4EMNl13ghefK-36" style="edgeStyle=orthogonalEdgeStyle;rounded=0;orthogonalLoop=1;jettySize=auto;html=1;exitX=0.5;exitY=1;exitDx=0;exitDy=0;entryX=0;entryY=0.5;entryDx=0;entryDy=0;" edge="1" parent="1" source="RUCjFSHT4EMNl13ghefK-30" target="KhnNNgycjfnA8WjDQx8Y-18">
          <mxGeometry relative="1" as="geometry">
            <Array as="points">
              <mxPoint x="760" y="580" />
              <mxPoint x="100" y="580" />
              <mxPoint x="100" y="280" />
            </Array>
          </mxGeometry>
        </mxCell>
        <mxCell id="RUCjFSHT4EMNl13ghefK-30" value="¿Se han completado pedidos?" style="rhombus;whiteSpace=wrap;html=1;" vertex="1" parent="1">
          <mxGeometry x="720" y="400" width="80" height="80" as="geometry" />
        </mxCell>
        <mxCell id="RUCjFSHT4EMNl13ghefK-40" style="edgeStyle=orthogonalEdgeStyle;rounded=0;orthogonalLoop=1;jettySize=auto;html=1;entryX=0.5;entryY=1;entryDx=0;entryDy=0;" edge="1" parent="1" source="RUCjFSHT4EMNl13ghefK-33" target="RUCjFSHT4EMNl13ghefK-39">
          <mxGeometry relative="1" as="geometry" />
        </mxCell>
        <mxCell id="RUCjFSHT4EMNl13ghefK-33" value="Enviar al cliente" style="rounded=1;whiteSpace=wrap;html=1;" vertex="1" parent="1">
          <mxGeometry x="940" y="400" width="80" height="80" as="geometry" />
        </mxCell>
        <mxCell id="RUCjFSHT4EMNl13ghefK-37" value="No" style="text;html=1;strokeColor=none;fillColor=none;align=center;verticalAlign=middle;whiteSpace=wrap;rounded=0;" vertex="1" parent="1">
          <mxGeometry x="750" y="480" width="60" height="30" as="geometry" />
        </mxCell>
        <mxCell id="RUCjFSHT4EMNl13ghefK-38" value="Si" style="text;html=1;align=center;verticalAlign=middle;resizable=0;points=[];autosize=1;strokeColor=none;fillColor=none;" vertex="1" parent="1">
          <mxGeometry x="800" y="414" width="30" height="30" as="geometry" />
        </mxCell>
        <mxCell id="RUCjFSHT4EMNl13ghefK-41" style="edgeStyle=orthogonalEdgeStyle;rounded=0;orthogonalLoop=1;jettySize=auto;html=1;exitX=0.5;exitY=0;exitDx=0;exitDy=0;entryX=0.5;entryY=1;entryDx=0;entryDy=0;" edge="1" parent="1" source="RUCjFSHT4EMNl13ghefK-39" target="RUCjFSHT4EMNl13ghefK-4">
          <mxGeometry relative="1" as="geometry" />
        </mxCell>
        <mxCell id="RUCjFSHT4EMNl13ghefK-39" value="Han sobrado articulos" style="rhombus;whiteSpace=wrap;html=1;" vertex="1" parent="1">
          <mxGeometry x="940" y="240" width="80" height="80" as="geometry" />
        </mxCell>
      </root>
    </mxGraphModel>
  </diagram>
</mxfile>
